<svg width="790" height="702" viewBox="0 0 790 702" fill="none" xmlns="http://www.w3.org/2000/svg">
<g id="undraw_Note_list_re_r4u9 1" clip-path="url(#clip0)">
<path id="ground" d="M790 699.992H0V701.992H790V699.992Z" fill="#3F3D56"/>
<g id="user">
<path id="Vector" d="M234.411 342.282C232.946 341.715 231.375 341.476 229.808 341.581C228.241 341.687 226.717 342.135 225.342 342.894C223.967 343.653 222.775 344.704 221.85 345.973C220.925 347.242 220.29 348.699 219.988 350.24L131.734 398.228L147.251 415.692L229.211 363.093C231.834 363.427 234.489 362.788 236.672 361.296C238.854 359.803 240.414 357.562 241.055 354.997C241.696 352.432 241.374 349.72 240.149 347.377C238.925 345.033 236.883 343.221 234.411 342.282H234.411Z" fill="#FFB8B8"/>
<path id="Vector_2" d="M211.903 687.551L222.9 680.438L200.697 634.635L184.466 645.133L211.903 687.551Z" fill="#FFB8B8"/>
<path id="Vector_3" d="M250.714 676.931L216.151 699.287L207.514 685.933L229.222 671.892C232.631 669.687 236.777 668.926 240.747 669.778C244.717 670.629 248.186 673.023 250.391 676.432L250.714 676.931L250.714 676.931Z" fill="#2F2E41"/>
<path id="Vector_4" d="M88.511 689.206H101.608L107.841 638.688H88.511V689.206Z" fill="#FFB8B8"/>
<path id="Vector_5" d="M126.867 701.367H85.7046V685.463H111.558C113.569 685.463 115.559 685.859 117.417 686.629C119.274 687.398 120.962 688.526 122.383 689.947C123.805 691.369 124.933 693.057 125.702 694.914C126.471 696.771 126.867 698.762 126.867 700.773V701.367V701.367Z" fill="#2F2E41"/>
<path id="Vector_6" d="M96.2316 519.412C99.9216 545.302 80.3816 660.002 82.5516 659.992L110.612 659.842C111.612 657.922 124.492 596.032 128.532 586.102C134.172 572.322 139.862 558.372 142.082 543.652C144.172 529.832 143.142 515.752 141.782 501.842C141.845 501.428 141.809 501.005 141.676 500.608C141.544 500.211 141.319 499.851 141.02 499.558C140.721 499.265 140.357 499.048 139.957 498.923C139.558 498.799 139.134 498.771 138.722 498.842L101.072 496.902C93.3116 496.502 91.4716 494.802 92.6516 502.422C93.4715 508.112 95.4116 513.652 96.2316 519.412Z" fill="#2F2E41"/>
<path id="Vector_7" d="M103.632 456.462C95.9816 467.462 87.9616 480.122 90.5016 493.292C92.4316 503.292 100.052 511.042 107.242 518.292C135.982 547.152 192.652 674.492 192.652 674.492C220 656.992 192 674.992 219.752 656.492C217.292 656.302 161.402 455.392 156.772 455.122C138.042 453.882 121.882 452.052 103.632 456.462Z" fill="#2F2E41"/>
<path id="Vector_8" d="M133.89 351.763C130.004 348.298 102.698 337.612 102.698 337.612C102.196 337.545 101.686 337.56 101.189 337.657C99.6351 338.049 98.9261 339.98 99.258 341.542C99.5899 343.103 96.8667 368.766 96.1651 380.436C94.9356 400.803 106.93 446.939 106.824 448.35C106.413 453.381 104.21 458.097 100.616 461.642C101.55 462.801 160.881 465.127 164.917 466.5C165.731 465.466 160.323 392.287 160.074 388.153C159.659 381.877 139.02 356.516 133.89 351.763Z" fill="#F7F7F7"/>
<path id="Vector_9" d="M91.5728 510.551C92.9788 509.851 94.2143 508.852 95.1923 507.623C96.1703 506.394 96.8669 504.965 97.2332 503.438C97.5994 501.911 97.6264 500.322 97.3121 498.783C96.9979 497.245 96.3501 495.794 95.4143 494.532L120.447 355.992L97.0872 355.684L79.7032 492.682C77.6885 494.395 76.372 496.787 76.0031 499.405C75.6342 502.023 76.2385 504.686 77.7016 506.889C79.1646 509.091 81.3848 510.68 83.9413 511.355C86.4979 512.03 89.2132 511.744 91.5728 510.551H91.5728Z" fill="#FFB8B8"/>
<path id="Vector_10" d="M91.3716 366.272C90.3974 366.343 89.4271 366.09 88.6116 365.552C87.2216 364.362 98.5616 346.152 100.802 345.882C108.092 345.042 115.592 344.762 122.662 346.732C129.732 348.702 136.382 353.182 139.542 359.812C140.862 362.572 131.292 376.462 126.942 374.422C121.732 371.982 98.2316 366.442 91.3716 366.272Z" fill="#F7F7F7"/>
<path id="Vector_11" d="M117.102 336.119C131.593 336.119 143.341 324.371 143.341 309.88C143.341 295.389 131.593 283.641 117.102 283.641C102.611 283.641 90.8632 295.389 90.8632 309.88C90.8632 324.371 102.611 336.119 117.102 336.119Z" fill="#FFB8B8"/>
<path id="Vector_12" d="M91.3299 353.264C94.9761 353.645 98.6598 353.106 102.044 351.696C105.428 350.286 108.405 348.05 110.701 345.192C112.998 342.335 114.541 338.947 115.19 335.338C115.839 331.73 115.573 328.017 114.415 324.538C113.371 321.399 111.626 318.521 110.67 315.354C109.713 312.187 109.687 308.442 111.808 305.903C115.958 300.935 123.956 304.06 130.353 303.072C137.17 302.019 142.4 295.48 142.945 288.604C143.491 281.728 139.907 274.924 134.572 270.552C129.237 266.18 122.356 264.028 115.492 263.353C106.676 262.487 97.786 263.905 89.6774 267.471C81.5688 271.037 74.5147 276.63 69.1946 283.713C63.8744 290.795 60.4673 299.128 59.3013 307.909C58.1352 316.69 59.2496 325.623 62.5371 333.849C65.405 341.024 70.0893 347.707 76.7429 351.637C83.3965 355.567 92.1842 356.322 98.8157 352.355" fill="#2F2E41"/>
</g>
<g id="phone">
<path id="Vector_13" d="M657.367 123.114C657.351 123.114 657.337 123.119 657.322 123.119V35.6899C657.322 26.2244 653.561 17.1465 646.868 10.4533C640.175 3.76018 631.097 0 621.632 0H347.912C338.446 0 329.368 3.76018 322.675 10.4533C315.982 17.1465 312.222 26.2244 312.222 35.6899V80.5107C311.466 80.5269 310.747 80.8382 310.218 81.3781C309.689 81.918 309.392 82.6436 309.392 83.3994V105.6C309.392 106.355 309.689 107.081 310.218 107.621C310.747 108.161 311.466 108.472 312.222 108.488V131.745H312.077C311.696 131.745 311.32 131.819 310.969 131.965C310.617 132.11 310.298 132.324 310.029 132.593C309.761 132.861 309.547 133.18 309.402 133.532C309.256 133.883 309.182 134.259 309.182 134.64V177.569C309.182 177.95 309.256 178.326 309.402 178.677C309.547 179.028 309.761 179.348 310.029 179.616C310.298 179.885 310.617 180.099 310.969 180.244C311.32 180.389 311.696 180.464 312.077 180.464H312.222V197.515H312.177C311.796 197.515 311.42 197.589 311.069 197.735C310.717 197.88 310.398 198.094 310.129 198.363C309.861 198.631 309.647 198.95 309.502 199.302C309.356 199.653 309.282 200.029 309.282 200.41V243.759C309.282 244.139 309.356 244.516 309.502 244.867C309.647 245.218 309.861 245.538 310.129 245.806C310.398 246.075 310.717 246.288 311.069 246.434C311.42 246.579 311.796 246.654 312.177 246.654H312.222V665.68C312.222 675.146 315.982 684.224 322.675 690.917C329.368 697.61 338.446 701.37 347.912 701.37H621.632C631.097 701.37 640.175 697.61 646.868 690.917C653.561 684.224 657.322 675.146 657.322 665.68V208.13C657.337 208.13 657.351 208.134 657.367 208.134C658.044 208.134 658.714 208.001 659.339 207.742C659.965 207.483 660.533 207.103 661.012 206.625C661.49 206.146 661.87 205.578 662.129 204.952C662.388 204.327 662.522 203.656 662.522 202.979V128.27C662.522 126.902 661.979 125.591 661.012 124.624C660.045 123.657 658.734 123.114 657.367 123.114Z" fill="#3F3D56"/>
<path id="Vector_14" d="M636.012 45.6801V655.68C636.009 662.948 633.12 669.917 627.98 675.055C622.84 680.194 615.87 683.08 608.602 683.08H360.942C353.674 683.08 346.704 680.194 341.563 675.055C336.423 669.917 333.534 662.948 333.532 655.68V45.6801C333.532 38.4105 336.42 31.4387 341.56 26.2983C346.7 21.1579 353.672 18.2701 360.942 18.2701H398.002V23.0801C398.004 29.0652 400.383 34.8044 404.615 39.0365C408.847 43.2687 414.587 45.6474 420.572 45.6501H546.572C552.549 45.6368 558.277 43.2531 562.499 39.0218C566.721 34.7906 569.092 29.0574 569.092 23.0801V18.3201H608.602C615.863 18.3201 622.827 21.201 627.966 26.3306C633.105 31.4602 635.998 38.4192 636.012 45.6801V45.6801Z" fill="white"/>
<path id="Vector_15" d="M389 98.9922H362C361.337 98.9922 360.701 98.7288 360.232 98.2599C359.763 97.7911 359.5 97.1552 359.5 96.4922C359.5 95.8291 359.763 95.1933 360.232 94.7244C360.701 94.2556 361.337 93.9922 362 93.9922H389C389.663 93.9922 390.299 94.2556 390.768 94.7244C391.237 95.1933 391.5 95.8291 391.5 96.4922C391.5 97.1552 391.237 97.7911 390.768 98.2599C390.299 98.7288 389.663 98.9922 389 98.9922V98.9922Z" fill="#3F3D56"/>
<path id="Vector_16" d="M389 105.992H362C361.337 105.992 360.701 105.729 360.232 105.26C359.763 104.791 359.5 104.155 359.5 103.492C359.5 102.829 359.763 102.193 360.232 101.724C360.701 101.256 361.337 100.992 362 100.992H389C389.663 100.992 390.299 101.256 390.768 101.724C391.237 102.193 391.5 102.829 391.5 103.492C391.5 104.155 391.237 104.791 390.768 105.26C390.299 105.729 389.663 105.992 389 105.992V105.992Z" fill="#3F3D56"/>
<path id="Vector_17" d="M389 112.992H362C361.337 112.992 360.701 112.729 360.232 112.26C359.763 111.791 359.5 111.155 359.5 110.492C359.5 109.829 359.763 109.193 360.232 108.724C360.701 108.256 361.337 107.992 362 107.992H389C389.663 107.992 390.299 108.256 390.768 108.724C391.237 109.193 391.5 109.829 391.5 110.492C391.5 111.155 391.237 111.791 390.768 112.26C390.299 112.729 389.663 112.992 389 112.992V112.992Z" fill="#3F3D56"/>
<path id="Vector_18" d="M598.292 106.042H597.382L597.032 105.752C598.181 104.382 598.811 102.651 598.812 100.862C598.804 99.3907 598.36 97.9546 597.535 96.7355C596.711 95.5165 595.544 94.5691 594.182 94.0134C592.819 93.4576 591.323 93.3183 589.881 93.6131C588.439 93.908 587.117 94.6237 586.083 95.6697C585.048 96.7158 584.346 98.0453 584.067 99.49C583.788 100.935 583.943 102.43 584.513 103.786C585.084 105.143 586.044 106.3 587.272 107.11C588.499 107.921 589.94 108.35 591.412 108.342C593.195 108.329 594.919 107.701 596.292 106.562L596.632 106.852V107.772L602.372 113.522L604.092 111.802L598.292 106.042ZM591.412 106.042C590.387 106.046 589.384 105.746 588.53 105.18C587.676 104.614 587.009 103.808 586.614 102.863C586.218 101.918 586.111 100.877 586.307 99.8713C586.503 98.8657 586.993 97.9408 587.715 97.2136C588.436 96.4863 589.357 95.9894 590.361 95.7857C591.365 95.5819 592.407 95.6805 593.355 96.0688C594.303 96.4572 595.115 97.118 595.687 97.9677C596.26 98.8173 596.568 99.8176 596.571 100.842L596.572 100.862C596.575 101.538 596.446 102.209 596.191 102.835C595.936 103.462 595.56 104.031 595.084 104.512C594.609 104.993 594.043 105.376 593.42 105.639C592.797 105.901 592.128 106.038 591.452 106.042C591.438 106.042 591.425 106.042 591.412 106.042H591.412Z" fill="#3F3D56"/>
<path id="Vector_19" d="M444.005 190.992H395.5C392.583 190.992 389.785 189.833 387.722 187.77C385.659 185.707 384.5 182.91 384.5 179.992C384.5 177.075 385.659 174.277 387.722 172.214C389.785 170.151 392.583 168.992 395.5 168.992H444.005C446.923 168.992 449.721 170.151 451.784 172.214C453.846 174.277 455.005 177.075 455.005 179.992C455.005 182.91 453.846 185.707 451.784 187.77C449.721 189.833 446.923 190.992 444.005 190.992V190.992Z" fill="#6C63FF"/>
<path id="Vector_20" d="M443.505 329H395C392.083 329 389.285 327.841 387.222 325.778C385.159 323.715 384 320.917 384 318C384 315.083 385.159 312.285 387.222 310.222C389.285 308.159 392.083 307 395 307H443.505C446.423 307 449.221 308.159 451.284 310.222C453.346 312.285 454.505 315.083 454.505 318C454.505 320.917 453.346 323.715 451.284 325.778C449.221 327.841 446.423 329 443.505 329V329Z" fill="#6C63FF"/>
<path id="Vector_21" d="M592.5 214.992H390.5C388.909 214.992 387.383 214.36 386.257 213.235C385.132 212.11 384.5 210.583 384.5 208.992C384.5 207.401 385.132 205.875 386.257 204.75C387.383 203.624 388.909 202.992 390.5 202.992H592.5C594.091 202.992 595.617 203.624 596.743 204.75C597.868 205.875 598.5 207.401 598.5 208.992C598.5 210.583 597.868 212.11 596.743 213.235C595.617 214.36 594.091 214.992 592.5 214.992Z" fill="#E6E6E6"/>
<path id="Vector_22" d="M592 353H390C388.409 353 386.883 352.368 385.757 351.243C384.632 350.117 384 348.591 384 347C384 345.409 384.632 343.883 385.757 342.757C386.883 341.632 388.409 341 390 341H592C593.591 341 595.117 341.632 596.243 342.757C597.368 343.883 598 345.409 598 347C598 348.591 597.368 350.117 596.243 351.243C595.117 352.368 593.591 353 592 353Z" fill="#E6E6E6"/>
<path id="Vector_23" d="M464.7 238.992H390.5C388.909 238.992 387.383 238.36 386.257 237.235C385.132 236.11 384.5 234.583 384.5 232.992C384.5 231.401 385.132 229.875 386.257 228.75C387.383 227.624 388.909 226.992 390.5 226.992H464.7C466.291 226.992 467.818 227.624 468.943 228.75C470.068 229.875 470.7 231.401 470.7 232.992C470.7 234.583 470.068 236.11 468.943 237.235C467.818 238.36 466.291 238.992 464.7 238.992Z" fill="#E6E6E6"/>
<path id="Vector_24" d="M464.2 377H390C388.409 377 386.883 376.368 385.757 375.243C384.632 374.117 384 372.591 384 371C384 369.409 384.632 367.883 385.757 366.757C386.883 365.632 388.409 365 390 365H464.2C465.791 365 467.318 365.632 468.443 366.757C469.568 367.883 470.2 369.409 470.2 371C470.2 372.591 469.568 374.117 468.443 375.243C467.318 376.368 465.791 377 464.2 377Z" fill="#E6E6E6"/>
<path id="Vector_25" d="M444.005 456.992H395.5C392.583 456.992 389.785 455.833 387.722 453.77C385.659 451.707 384.5 448.91 384.5 445.992C384.5 443.075 385.659 440.277 387.722 438.214C389.785 436.151 392.583 434.992 395.5 434.992H444.005C446.923 434.992 449.721 436.151 451.784 438.214C453.846 440.277 455.005 443.075 455.005 445.992C455.005 448.91 453.846 451.707 451.784 453.77C449.721 455.833 446.923 456.992 444.005 456.992V456.992Z" fill="#6C63FF"/>
<path id="Vector_26" d="M592.5 480.992H390.5C388.909 480.992 387.383 480.36 386.257 479.235C385.132 478.11 384.5 476.583 384.5 474.992C384.5 473.401 385.132 471.875 386.257 470.75C387.383 469.624 388.909 468.992 390.5 468.992H592.5C594.091 468.992 595.617 469.624 596.743 470.75C597.868 471.875 598.5 473.401 598.5 474.992C598.5 476.583 597.868 478.11 596.743 479.235C595.617 480.36 594.091 480.992 592.5 480.992V480.992Z" fill="#E6E6E6"/>
<path id="Vector_27" d="M464.7 504.992H390.5C388.909 504.992 387.383 504.36 386.257 503.235C385.132 502.11 384.5 500.583 384.5 498.992C384.5 497.401 385.132 495.875 386.257 494.75C387.383 493.624 388.909 492.992 390.5 492.992H464.7C466.291 492.992 467.818 493.624 468.943 494.75C470.068 495.875 470.7 497.401 470.7 498.992C470.7 500.583 470.068 502.11 468.943 503.235C467.818 504.36 466.291 504.992 464.7 504.992V504.992Z" fill="#E6E6E6"/>
<path id="Vector_28" d="M444.005 579.992H395.5C392.583 579.992 389.785 578.833 387.722 576.77C385.659 574.707 384.5 571.91 384.5 568.992C384.5 566.075 385.659 563.277 387.722 561.214C389.785 559.151 392.583 557.992 395.5 557.992H444.005C446.923 557.992 449.721 559.151 451.784 561.214C453.846 563.277 455.005 566.075 455.005 568.992C455.005 571.91 453.846 574.707 451.784 576.77C449.721 578.833 446.923 579.992 444.005 579.992V579.992Z" fill="#6C63FF"/>
<path id="Vector_29" d="M592.5 603.992H390.5C388.909 603.992 387.383 603.36 386.257 602.235C385.132 601.11 384.5 599.583 384.5 597.992C384.5 596.401 385.132 594.875 386.257 593.75C387.383 592.624 388.909 591.992 390.5 591.992H592.5C594.091 591.992 595.617 592.624 596.743 593.75C597.868 594.875 598.5 596.401 598.5 597.992C598.5 599.583 597.868 601.11 596.743 602.235C595.617 603.36 594.091 603.992 592.5 603.992V603.992Z" fill="#E6E6E6"/>
<path id="Vector_30" d="M464.7 627.992H390.5C388.909 627.992 387.383 627.36 386.257 626.235C385.132 625.11 384.5 623.583 384.5 621.992C384.5 620.401 385.132 618.875 386.257 617.75C387.383 616.624 388.909 615.992 390.5 615.992H464.7C466.291 615.992 467.818 616.624 468.943 617.75C470.068 618.875 470.7 620.401 470.7 621.992C470.7 623.583 470.068 625.11 468.943 626.235C467.818 627.36 466.291 627.992 464.7 627.992V627.992Z" fill="#E6E6E6"/>
</g>
<g id="list-item">
<path id="Vector_31" d="M621 394.492H235C232.746 394.49 230.586 393.593 228.992 392C227.399 390.406 226.503 388.246 226.5 385.992V280.992C226.503 278.739 227.399 276.578 228.992 274.985C230.586 273.391 232.746 272.495 235 272.492H621C623.254 272.495 625.414 273.391 627.008 274.985C628.601 276.578 629.497 278.739 629.5 280.992V385.992C629.497 388.246 628.601 390.406 627.007 392C625.414 393.593 623.254 394.49 621 394.492V394.492Z" fill="#6C63FF"/>
<path id="Vector_32" d="M424.7 368.492H303.5C301.909 368.492 300.383 367.86 299.257 366.735C298.132 365.61 297.5 364.083 297.5 362.492C297.5 360.901 298.132 359.375 299.257 358.25C300.383 357.124 301.909 356.492 303.5 356.492H424.7C426.291 356.492 427.818 357.124 428.943 358.25C430.068 359.375 430.7 360.901 430.7 362.492C430.7 364.083 430.068 365.61 428.943 366.735C427.818 367.86 426.291 368.492 424.7 368.492V368.492Z" fill="#E6E6E6"/>
<path id="Vector_33" d="M552.5 344.492H303.5C301.909 344.492 300.383 343.86 299.257 342.735C298.132 341.61 297.5 340.083 297.5 338.492C297.5 336.901 298.132 335.375 299.257 334.25C300.383 333.124 301.909 332.492 303.5 332.492H552.5C554.091 332.492 555.617 333.124 556.743 334.25C557.868 335.375 558.5 336.901 558.5 338.492C558.5 340.083 557.868 341.61 556.743 342.735C555.617 343.86 554.091 344.492 552.5 344.492V344.492Z" fill="#E6E6E6"/>
<path id="Vector_34" d="M372.277 320.492H305.223C300.965 320.492 297.5 315.558 297.5 309.492C297.5 303.427 300.965 298.492 305.223 298.492H372.277C376.535 298.492 380 303.427 380 309.492C380 315.558 376.535 320.492 372.277 320.492Z" fill="white"/>
</g>
</g>
<defs>
<clipPath id="clip0">
<rect width="790" height="701.992" fill="white"/>
</clipPath>
</defs>
</svg>
